HIERARCHY
ROOT reference
{
  OFFSET 0 0 0
  CHANNELS 6 Xposition Yposition Zposition Zrotation Xrotation Yrotation
  JOINT Hips
  {
    OFFSET 370.543 87.5 183.721
    CHANNELS 3 Zrotation Xrotation Yrotation
    JOINT RightUpLeg
    {
      OFFSET -9.29072 -1.53718 -0.00769521
      CHANNELS 3 Zrotation Xrotation Yrotation
      JOINT RightLeg
      {
        OFFSET 0.000649198 -41.8926 0.0287464
        CHANNELS 3 Zrotation Xrotation Yrotation
        JOINT RightFoot
        {
          OFFSET -0.131981 -42.8927 0.241786
          CHANNELS 3 Zrotation Xrotation Yrotation
          End Site
          {
            OFFSET 0 -7.69 17.5
          }
        }
      }
    }
    JOINT LeftUpLeg
    {
      OFFSET 9.29816 -1.6623 -0.0330144
      CHANNELS 3 Zrotation Xrotation Yrotation
      JOINT LeftLeg
      {
        OFFSET 0.0555409 -41.8801 -0.0492089
        CHANNELS 3 Zrotation Xrotation Yrotation
        JOINT LeftFoot
        {
          OFFSET 0.737583 -41.1094 -0.206555
          CHANNELS 3 Zrotation Xrotation Yrotation
          End Site
          {
            OFFSET 0 -7.69 17.5
          }
        }
      }
    }
    JOINT Spine
    {
      OFFSET 0.0742767 14.2946 0.0485675
      CHANNELS 3 Zrotation Xrotation Yrotation
      JOINT Spine1
      {
        OFFSET 0.0332084 9.70841 0.0159593
        CHANNELS 3 Zrotation Xrotation Yrotation
        JOINT Spine2
        {
          OFFSET 0.0388468 10.1231 0.00288192
          CHANNELS 3 Zrotation Xrotation Yrotation
          JOINT Spine3
          {
            OFFSET 0.0300771 9.71993 0.00776905
            CHANNELS 3 Zrotation Xrotation Yrotation
            JOINT Neck
            {
              OFFSET 0.058413 10.382 0.0516165
              CHANNELS 3 Zrotation Xrotation Yrotation
              JOINT Head
              {
                OFFSET 0.0298281 9.47849 0.0268718
                CHANNELS 3 Zrotation Xrotation Yrotation
                End Site
                {
                  OFFSET 0 15.95 0
                }
              }
            }
            JOINT RightShoulder
            {
              OFFSET -3.15612 6.91385 0.0353801
              CHANNELS 3 Zrotation Xrotation Yrotation
              JOINT RightArm
              {
                OFFSET -12.7781 -0.0057607 0.0332486
                CHANNELS 3 Zrotation Xrotation Yrotation
                JOINT RightForeArm
                {
                  OFFSET -26.4999 -0.0425897 0.0409183
                  CHANNELS 3 Zrotation Xrotation Yrotation
                  JOINT RightHand
                  {
                    OFFSET -25.993 -0.0294641 0.00108206
                    CHANNELS 3 Zrotation Xrotation Yrotation
                    JOINT RightHandThumb1
                    {
                      OFFSET -2.48905 0.190105 3.12053
                      CHANNELS 3 Zrotation Xrotation Yrotation
                      JOINT RightHandThumb2
                      {
                        OFFSET -3.68274 0 0
                        CHANNELS 3 Zrotation Xrotation Yrotation
                        JOINT RightHandThumb3
                        {
                          OFFSET -2.55832 0 0
                          CHANNELS 3 Zrotation Xrotation Yrotation
                          End Site
                          {
                            OFFSET -2.194 0 0
                          }
                        }
                      }
                    }
                    JOINT RightInHandIndex
                    {
                      OFFSET -3.22368 0.508421 1.97842
                      CHANNELS 3 Zrotation Xrotation Yrotation
                      JOINT RightHandIndex1
                      {
                        OFFSET -5.21684 -0.091368 0.999158
                        CHANNELS 3 Zrotation Xrotation Yrotation
                        JOINT RightHandIndex2
                        {
                          OFFSET -3.61937 0 0
                          CHANNELS 3 Zrotation Xrotation Yrotation
                          JOINT RightHandIndex3
                          {
                            OFFSET -2.0521 0 0
                            CHANNELS 3 Zrotation Xrotation Yrotation
                            End Site
                            {
                              OFFSET -1.805 0 0
                            }
                          }
                        }
                      }
                    }
                    JOINT RightInHandMiddle
                    {
                      OFFSET -3.38211 0.517263 0.756737
                      CHANNELS 3 Zrotation Xrotation Yrotation
                      JOINT RightHandMiddle1
                      {
                        OFFSET -5.17411 -0.084 0.313895
                        CHANNELS 3 Zrotation Xrotation Yrotation
                        JOINT RightHandMiddle2
                        {
                          OFFSET -3.94947 0 0
                          CHANNELS 3 Zrotation Xrotation Yrotation
                          JOINT RightHandMiddle3
                          {
                            OFFSET -2.47579 0 0
                            CHANNELS 3 Zrotation Xrotation Yrotation
                            End Site
                            {
                              OFFSET -1.975 0 0
                            }
                          }
                        }
                      }
                    }
                    JOINT RightInHandRing
                    {
                      OFFSET -3.36516 0.537895 -0.128947
                      CHANNELS 3 Zrotation Xrotation Yrotation
                      JOINT RightHandRing1
                      {
                        OFFSET -4.63474 -0.022105 -0.478947
                        CHANNELS 3 Zrotation Xrotation Yrotation
                        JOINT RightHandRing2
                        {
                          OFFSET -3.44238 0 0
                          CHANNELS 3 Zrotation Xrotation Yrotation
                          JOINT RightHandRing3
                          {
                            OFFSET -2.3881 0 0
                            CHANNELS 3 Zrotation Xrotation Yrotation
                            End Site
                            {
                              OFFSET -1.857 0 0
                            }
                          }
                        }
                      }
                    }
                    JOINT RightInHandPinky
                    {
                      OFFSET -3.16105 0.469368 -1.20179
                      CHANNELS 3 Zrotation Xrotation Yrotation
                      JOINT RightHandPinky1
                      {
                        OFFSET -4.14105 -0.022105 -1.09053
                        CHANNELS 3 Zrotation Xrotation Yrotation
                        JOINT RightHandPinky2
                        {
                          OFFSET -2.75653 0 0
                          CHANNELS 3 Zrotation Xrotation Yrotation
                          JOINT RightHandPinky3
                          {
                            OFFSET -1.74189 0 0
                            CHANNELS 3 Zrotation Xrotation Yrotation
                            End Site
                            {
                              OFFSET -1.645 0 0
                            }
                          }
                        }
                      }
                    }
                  }
                }
              }
            }
            JOINT LeftShoulder
            {
              OFFSET 3.24463 6.9123 -0.0189685
              CHANNELS 3 Zrotation Xrotation Yrotation
              JOINT LeftArm
              {
                OFFSET 12.8793 -0.0485389 -0.0634723
                CHANNELS 3 Zrotation Xrotation Yrotation
                JOINT LeftForeArm
                {
                  OFFSET 26.4894 0.00252616 -0.136149
                  CHANNELS 3 Zrotation Xrotation Yrotation
                  JOINT LeftHand
                  {
                    OFFSET 26.005 0.0292639 -0.0166184
                    CHANNELS 3 Zrotation Xrotation Yrotation
                    JOINT LeftHandThumb1
                    {
                      OFFSET 2.48905 0.190105 3.12053
                      CHANNELS 3 Zrotation Xrotation Yrotation
                      JOINT LeftHandThumb2
                      {
                        OFFSET 3.68274 0 0
                        CHANNELS 3 Zrotation Xrotation Yrotation
                        JOINT LeftHandThumb3
                        {
                          OFFSET 2.55832 0 0
                          CHANNELS 3 Zrotation Xrotation Yrotation
                          End Site
                          {
                            OFFSET 2.194 0 0
                          }
                        }
                      }
                    }
                    JOINT LeftInHandIndex
                    {
                      OFFSET 3.22368 0.508421 1.97842
                      CHANNELS 3 Zrotation Xrotation Yrotation
                      JOINT LeftHandIndex1
                      {
                        OFFSET 5.21684 -0.091368 0.999158
                        CHANNELS 3 Zrotation Xrotation Yrotation
                        JOINT LeftHandIndex2
                        {
                          OFFSET 3.61937 0 0
                          CHANNELS 3 Zrotation Xrotation Yrotation
                          JOINT LeftHandIndex3
                          {
                            OFFSET 2.0521 0 0
                            CHANNELS 3 Zrotation Xrotation Yrotation
                            End Site
                            {
                              OFFSET 1.805 0 0
                            }
                          }
                        }
                      }
                    }
                    JOINT LeftInHandMiddle
                    {
                      OFFSET 3.38211 0.517263 0.756737
                      CHANNELS 3 Zrotation Xrotation Yrotation
                      JOINT LeftHandMiddle1
                      {
                        OFFSET 5.17411 -0.084 0.313895
                        CHANNELS 3 Zrotation Xrotation Yrotation
                        JOINT LeftHandMiddle2
                        {
                          OFFSET 3.94947 0 0
                          CHANNELS 3 Zrotation Xrotation Yrotation
                          JOINT LeftHandMiddle3
                          {
                            OFFSET 2.47579 0 0
                            CHANNELS 3 Zrotation Xrotation Yrotation
                            End Site
                            {
                              OFFSET 1.975 0 0
                            }
                          }
                        }
                      }
                    }
                    JOINT LeftInHandRing
                    {
                      OFFSET 3.36516 0.537895 -0.128947
                      CHANNELS 3 Zrotation Xrotation Yrotation
                      JOINT LeftHandRing1
                      {
                        OFFSET 4.63474 -0.022105 -0.478947
                        CHANNELS 3 Zrotation Xrotation Yrotation
                        JOINT LeftHandRing2
                        {
                          OFFSET 3.44238 0 0
                          CHANNELS 3 Zrotation Xrotation Yrotation
                          JOINT LeftHandRing3
                          {
                            OFFSET 2.3881 0 0
                            CHANNELS 3 Zrotation Xrotation Yrotation
                            End Site
                            {
                              OFFSET 1.857 0 0
                            }
                          }
                        }
                      }
                    }
                    JOINT LeftInHandPinky
                    {
                      OFFSET 3.16105 0.469368 -1.20179
                      CHANNELS 3 Zrotation Xrotation Yrotation
                      JOINT LeftHandPinky1
                      {
                        OFFSET 4.14105 -0.022105 -1.09053
                        CHANNELS 3 Zrotation Xrotation Yrotation
                        JOINT LeftHandPinky2
                        {
                          OFFSET 2.75653 0 0
                          CHANNELS 3 Zrotation Xrotation Yrotation
                          JOINT LeftHandPinky3
                          {
                            OFFSET 1.74189 0 0
                            CHANNELS 3 Zrotation Xrotation Yrotation
                            End Site
                            {
                              OFFSET 1.645 0 0
                            }
                          }
                        }
                      }
                    }
                  }
                }
              }
            }
          }
        }
      }
    }
  }
}
MOTION
Frames: 2
Frame Time: 0.00833333
1.050000000000000000e+03 0.000000000000000000e+00 0.000000000000000000e+00 0.000000000000000000e+00 0.000000000000000000e+00 0.000000000000000000e+00 2.483312554357014079e+01 7.880251872918909051e+00 -1.139450264527755934e+02 6.593124313251237822e+00 -6.356590632446103228e+01 1.308521921242185471e+00 -6.190127537085871268e+00 2.385389556529366928e+01 -7.915685034367964334e+00 1.311879990040861443e+01 6.875095124742293784e+00 3.995623069403504957e+01 3.228609399395485013e+01 -3.874805710950363391e+01 2.244341629151703188e+01 -7.967745093810802537e+00 4.083448238908467687e+01 9.389618839231662406e+00 -6.947945145722819404e+00 -1.774993526161749102e+01 2.620542812083382245e+00 -4.096638055637281894e+00 1.361168109417675431e+01 -2.561485756901138444e-01 -8.512993759847928832e-01 3.493938139681490362e+00 -1.575314615660388107e-01 -1.443512261488629544e+00 5.649360530301590799e+00 -5.786751808566137356e-02 -1.040283042302907912e+00 -7.738738951073594885e-01 1.651384923392291704e+00 -1.982745419395325337e+00 -2.751263574029810144e+00 1.716947224527054061e+01 -1.816577094497776557e+01 -9.281298141706519900e+00 2.169009292237899800e+01 -2.991421283648025842e+00 -4.944281331152309278e+00 1.772155387056966447e+01 8.260281114506952349e+01 -3.646476715969438942e+01 3.759021038918179158e+01 5.971463443963775575e+01 -3.799177104744309474e+01 5.626634820037383378e+01 1.653151802203535325e+01 -2.382775854432297535e+01 -1.534394523621752349e+01 2.818400000000000105e+01 1.072940000000000005e+01 1.915919999999999845e+01 1.652241379675021602e-15 1.756246970584447367e-15 -1.000000000000000000e+01 9.442144751895813369e-15 -1.393537536443657670e-15 -1.000000000000000000e+01 9.090154101981140205e-15 3.731274578420357657e-17 3.711181468135977118e-15 1.998179999999999978e+01 8.718970000000000331e-01 2.396399999999999864e+00 2.400000000000000000e+01 -3.511538249564257870e-15 -1.479229793577574349e-14 2.000000000000000000e+01 -7.385144818789622959e-15 -3.061287583938541832e-16 9.090154101981140205e-15 3.731274578420357657e-17 3.711181468135977118e-15 2.000000000000000000e+01 -4.858805217930259957e-15 1.105495349839913662e-14 2.400000000000000000e+01 -2.857780792768971908e-16 4.674888260636748446e-16 2.000000000000000000e+01 5.148373301068956890e-15 2.263504010556572793e-15 9.090154101981140205e-15 3.731274578420357657e-17 3.711181468135977118e-15 1.997479999999999833e+01 -1.025649999999999951e+00 -2.819380000000000219e+00 2.400000000000000000e+01 7.948881365542134058e-15 -6.086852246120749957e-15 2.000000000000000000e+01 3.455015578049142139e-15 7.852028728730178633e-15 9.090154101981140205e-15 3.731274578420357657e-17 3.711181468135977118e-15 1.978150000000000119e+01 -3.009479999999999933e+00 -8.305149999999999366e+00 2.400000000000000000e+01 3.656323870317243088e-15 2.985525290793150218e-15 2.000000000000000000e+01 3.787504841049490322e-15 9.012958180300125246e-15 1.419147245841468674e+01 -1.865516357043446760e+01 -4.726399369748092028e+01 -3.658664211951364109e+01 2.589413535005836664e+01 -8.485993072707665874e+01 2.921284495265957304e+01 -2.731274242753634596e+01 3.537350330818287603e+01 -2.453018293428298335e+01 -1.636435724293344052e+01 9.464812945831393876e+00 -2.818400000000000105e+01 1.072940000000000005e+01 -1.915919999999999845e+01 -7.757827403848482930e-15 4.473237826734431876e-15 1.000000000000000000e+01 -9.013332046211418684e-15 -4.941363816336314986e-15 1.000000000000000000e+01 1.601332966985220522e-15 -9.649051150879160891e-15 -4.688782302241983731e-15 -1.998179999999999978e+01 8.718970000000000331e-01 -2.396399999999999864e+00 -2.400000000000000000e+01 -9.075485025800086778e-15 1.644414592817633456e-16 -2.000000000000000000e+01 -1.017015742125549111e-15 1.447604817067683176e-14 1.601332966985220522e-15 -9.649051150879160891e-15 -4.688782302241983731e-15 -2.000000000000000000e+01 -1.095856623061854346e-14 2.095573072283361844e-14 -2.400000000000000000e+01 -1.122500041067982169e-15 4.480250894571770029e-15 -2.000000000000000000e+01 1.391614887285243321e-15 7.126245140983710603e-15 1.601332966985220522e-15 -9.649051150879160891e-15 -4.688782302241983731e-15 -1.997479999999999833e+01 -1.025649999999999951e+00 2.819380000000000219e+00 -2.400000000000000000e+01 4.110676188165241932e-15 4.661230592026762052e-15 -2.000000000000000000e+01 -1.258285602320732724e-15 -2.385057012081378627e-15 1.601332966985220522e-15 -9.649051150879160891e-15 -4.688782302241983731e-15 -1.978150000000000119e+01 -3.009479999999999933e+00 8.305149999999999366e+00 -2.400000000000000000e+01 -2.633657110388012291e-15 1.398630429479922318e-14 -2.000000000000000000e+01 4.098071585579717767e-15 7.313206870049217957e-15
1.050000000000000000e+03 0.000000000000000000e+00 0.000000000000000000e+00 0.000000000000000000e+00 0.000000000000000000e+00 0.000000000000000000e+00 2.485521545947093003e+01 7.871021706201833723e+00 -1.141753060645349649e+02 6.702933731834846753e+00 -6.359859109372404617e+01 1.410918682912303268e+00 -6.198705549678394711e+00 2.385218450452816086e+01 -7.892233173432357418e+00 1.314380579042660990e+01 6.875586301614394991e+00 4.003497300293875583e+01 3.234832703941721377e+01 -3.870210542595582837e+01 2.249918567807607417e+01 -8.040677633471766228e+00 4.086899144017967700e+01 9.469990497700553789e+00 -6.893287871506700526e+00 -1.777537044328599691e+01 2.740686697712884978e+00 -4.098162395691444360e+00 1.357733538270897355e+01 -3.225926522932986984e-01 -8.523395370092216039e-01 3.486496817561302031e+00 -1.743884470596439584e-01 -1.445115600282216528e+00 5.638055947593976214e+00 -8.509076529685355439e-02 -1.042007116584032111e+00 -7.742551612307045916e-01 1.660802589581823696e+00 -1.983751662415739636e+00 -2.765148742500567192e+00 1.728419783858500480e+01 -1.819458728331883179e+01 -9.255360623310000534e+00 2.180195824121693349e+01 -2.988933709757309209e+00 -4.915502596764301124e+00 1.766686860952692939e+01 8.255095480183398138e+01 -3.661344952820417120e+01 3.742448597641817543e+01 5.980659957548462557e+01 -3.789030937278369038e+01 5.649891536223694999e+01 1.651638948256068318e+01 -2.383392436728542663e+01 -1.529372316597425296e+01 2.818400000000000105e+01 1.072940000000000005e+01 1.915919999999999845e+01 1.649647254040657966e-15 1.761171057949800192e-15 -1.000000000000000000e+01 9.440330400826058097e-15 -1.393073033627461522e-15 -1.000000000000000000e+01 9.091315118178465416e-15 3.073663696866904472e-17 3.708190736727700715e-15 1.998179999999999978e+01 8.718970000000000331e-01 2.396399999999999864e+00 2.400000000000000000e+01 -3.508585848638482127e-15 -1.479869234034927235e-14 2.000000000000000000e+01 -7.381882538002889255e-15 -3.027518611560296062e-16 9.091315118178465416e-15 3.073663696866904472e-17 3.708190736727700715e-15 2.000000000000000000e+01 -4.852156228783454438e-15 1.104329680717540857e-14 2.400000000000000000e+01 -2.805245027429246360e-16 4.568846829020263804e-16 2.000000000000000000e+01 5.154621903082509272e-15 2.274119153759305716e-15 9.091315118178465416e-15 3.073663696866904472e-17 3.708190736727700715e-15 1.997479999999999833e+01 -1.025649999999999951e+00 -2.819380000000000219e+00 2.400000000000000000e+01 7.958664706693303910e-15 -6.089973335589938608e-15 2.000000000000000000e+01 3.460884559751764712e-15 7.843783989445694164e-15 9.091315118178465416e-15 3.073663696866904472e-17 3.708190736727700715e-15 1.978150000000000119e+01 -3.009479999999999933e+00 -8.305149999999999366e+00 2.400000000000000000e+01 3.658824695346738786e-15 2.968417016531146249e-15 2.000000000000000000e+01 3.785443475441836655e-15 9.012532540064498129e-15 1.419461919152564100e+01 -1.868195274560439145e+01 -4.732500675808443447e+01 -3.653658036796824859e+01 2.593305215125636209e+01 -8.494220024327879059e+01 2.930914694783821517e+01 -2.717076838609034795e+01 3.538766088586273639e+01 -2.454875526677436781e+01 -1.636553748918623796e+01 9.420029953072331708e+00 -2.818400000000000105e+01 1.072940000000000005e+01 -1.915919999999999845e+01 -7.751126290760156691e-15 4.468920711473490330e-15 1.000000000000000000e+01 -9.013634144547857015e-15 -4.929149313225015002e-15 1.000000000000000000e+01 1.601041871160894352e-15 -9.637984385943041870e-15 -4.685460702825096370e-15 -1.998179999999999978e+01 8.718970000000000331e-01 -2.396399999999999864e+00 -2.400000000000000000e+01 -9.073071162406325843e-15 1.718369415134584464e-16 -2.000000000000000000e+01 -1.013274473195208304e-15 1.447597183976219442e-14 1.601041871160894352e-15 -9.637984385943041870e-15 -4.685460702825096370e-15 -2.000000000000000000e+01 -1.096950979173891082e-14 2.096371267740879419e-14 -2.400000000000000000e+01 -1.118532982390403071e-15 4.477717249464766768e-15 -2.000000000000000000e+01 1.388817239597938953e-15 7.130247092689954135e-15 1.601041871160894352e-15 -9.637984385943041870e-15 -4.685460702825096370e-15 -1.997479999999999833e+01 -1.025649999999999951e+00 2.819380000000000219e+00 -2.400000000000000000e+01 4.108376124735653323e-15 4.666963823413725864e-15 -2.000000000000000000e+01 -1.256578956091423170e-15 -2.389921112885959849e-15 1.601041871160894352e-15 -9.637984385943041870e-15 -4.685460702825096370e-15 -1.978150000000000119e+01 -3.009479999999999933e+00 8.305149999999999366e+00 -2.400000000000000000e+01 -2.629847876363999980e-15 1.398540440987445714e-14 -2.000000000000000000e+01 4.098160573722728696e-15 7.313318516501701409e-15
